@startuml

skinparam packageStyle rectangle

'UserAggregate
package UserAggregate {
entity User <<root>> <<entity>>{
}

class Name <<Value>> {
}

class Email <<Value>> {
}

class PhoneNumber<<Value>>{
}

class Password <<Value>>{
}
}

'CandidateAggregate
package CandidateAggregate{
entity Candidate <<entity>> <<root>> {
}
}


Candidate "1" --> "1" User : includes
User "1" --> "1" Name : has
User "1" --> "1" PhoneNumber : has
User "1" --> "1" Email : has
User "1" --> "1" Password : has

@enduml