@startuml
'skinparam
skinparam handwritten true
skinparam packageStyle rect
skinparam defaultFontName FG Virgil
skinparam shadowing false

'Entidades
class DisplayCandidateInfoUI <<presentation>> {
- doShow()
+ headline()
}
class DisplayCandidateInfoController <<application>>{
+ findCandidate(String email)
}
class AuthorizationService <<service>> {
- ensureAuthenticatedUserHasAnyOf(roles : Set<Role>)

}
class CandidateService <<service>> {
+ findByEmail(EmailAddress email)
}

class PersistenceContext <<persistence>> {
- repositories()

}
class RepositoryFactory <<factory>> {
- candidates()
}
class CandidateRepository <<repository>> {
+ findByEmail(final EmailAddress email)
}

'Associações
DisplayCandidateInfoUI --> DisplayCandidateInfoController : the controller
DisplayCandidateInfoController --> AuthorizationService : authz
DisplayCandidateInfoController --> CandidateService : candidate service
CandidateService --> PersistenceContext : persistence
PersistenceContext --> RepositoryFactory : factory
RepositoryFactory --> CandidateRepository : candidate repository

@enduml